<svg width="201" height="31" viewBox="0 0 201 31" fill="none" xmlns="http://www.w3.org/2000/svg">
<g opacity="0.9">
<g clip-path="url(#clip0_213_3659)">
<path d="M201 16.3486C201 25.67 196.679 29.4914 186.136 29.4914H151.513C140.97 29.4914 136.648 25.671 136.648 16.3486C136.648 7.02623 140.97 3.20581 151.513 3.20581H186.136C196.679 3.20581 201 7.02623 201 16.3486Z" fill="white"/>
<path d="M115.491 19.6459H110C109.851 19.6459 109.722 19.7527 109.695 19.9013C109.441 21.3233 108.962 22.4566 108.26 23.3031C107.469 24.2553 106.35 24.7315 104.902 24.7315C103.787 24.7315 102.83 24.3851 102.029 23.6924C101.227 22.9997 100.608 22.0223 100.174 20.7614C99.7397 19.4994 99.5225 18.0031 99.5225 16.2723C99.5225 14.5908 99.7284 13.1059 100.141 11.8199C100.553 10.5339 101.165 9.53245 101.979 8.81462C102.792 8.09784 103.778 7.73892 104.937 7.73892C106.251 7.73892 107.321 8.18469 108.145 9.07413C108.867 9.85475 109.367 10.9011 109.645 12.2123C109.675 12.3567 109.802 12.4582 109.947 12.4582H115.418C115.613 12.4582 115.758 12.2782 115.723 12.0836C115.179 9.05843 114.063 6.71868 112.373 5.06641C110.602 3.33566 108.123 2.46924 104.938 2.46924C102.62 2.46924 100.605 3.03848 98.8896 4.17592C97.1739 5.31441 95.8535 6.9154 94.9293 8.981C94.0051 11.0466 93.543 13.4774 93.543 16.2723C93.543 19.0673 94.0277 21.6341 94.9962 23.6746C95.9657 25.7151 97.3016 27.2805 99.0059 28.3687C100.71 29.457 102.653 30.0011 104.837 30.0011C106.953 30.0011 108.769 29.593 110.284 28.7768C111.799 27.9607 113.023 26.7793 113.96 25.2337C114.837 23.7845 115.45 22.0464 115.798 20.0195C115.831 19.8259 115.687 19.647 115.493 19.647L115.491 19.6459Z" fill="white"/>
<path d="M136.29 3.0625H130.789C130.679 3.0625 130.577 3.12214 130.521 3.21946L126.266 10.6489C126.226 10.719 126.127 10.719 126.087 10.6489L121.833 3.21946C121.777 3.12214 121.675 3.0625 121.565 3.0625H116.064C115.825 3.0625 115.676 3.32619 115.797 3.53652L123.038 16.1812C123.056 16.2137 123.056 16.2545 123.038 16.2869L115.797 28.9317C115.676 29.142 115.825 29.4057 116.064 29.4057H121.565C121.675 29.4057 121.777 29.346 121.833 29.2487L126.087 21.8193C126.127 21.7492 126.226 21.7492 126.266 21.8193L130.521 29.2487C130.577 29.346 130.679 29.4057 130.789 29.4057H136.29C136.528 29.4057 136.678 29.142 136.557 28.9317L129.316 16.2869C129.297 16.2545 129.297 16.2137 129.316 16.1812L136.557 3.53652C136.678 3.32619 136.528 3.0625 136.29 3.0625Z" fill="white"/>
<path d="M150.22 24.7387C148.576 24.7387 147.137 24.3997 145.903 23.7195C144.67 23.0404 143.714 22.0683 143.035 20.8032C142.357 19.5392 142.018 18.0397 142.018 16.3037C142.018 14.5677 142.361 12.996 143.051 11.71C143.739 10.4239 144.701 9.43719 145.934 8.74656C147.168 8.05698 148.586 7.71167 150.189 7.71167C151.793 7.71167 153.262 8.06745 154.476 8.77795C155.688 9.48846 156.634 10.4815 157.313 11.756C157.992 13.0316 158.331 14.5572 158.331 16.333C158.331 18.1087 157.997 19.5674 157.329 20.8325C156.661 22.0976 155.725 23.0634 154.522 23.7331C153.319 24.4028 151.885 24.7366 150.22 24.7366V24.7387ZM150.158 20.7258C151.104 20.7258 151.865 20.5175 152.44 20.099C153.015 19.6815 153.431 19.1321 153.689 18.453C153.945 17.7739 154.074 17.0581 154.074 16.3058C154.074 15.5534 153.946 14.8324 153.689 14.1429C153.431 13.4533 153.021 12.884 152.455 12.4341C151.889 11.9852 151.123 11.7602 150.157 11.7602C149.192 11.7602 148.482 11.9852 147.907 12.4341C147.331 12.884 146.914 13.4533 146.658 14.1429C146.401 14.8324 146.272 15.5534 146.272 16.3058C146.272 17.0581 146.401 17.8 146.658 18.4687C146.915 19.1384 147.331 19.6815 147.907 20.099C148.482 20.5175 149.232 20.7258 150.157 20.7258H150.158Z" fill="#3694FD"/>
<path d="M161.413 24.519V7.99633H165.453L165.669 9.90915C166.121 9.34514 166.64 8.90146 167.226 8.57708C167.812 8.25374 168.407 8.02876 169.015 7.9032C169.621 7.77763 170.172 7.71484 170.664 7.71484C172.227 7.71484 173.444 8.06016 174.319 8.74974C175.193 9.43932 175.82 10.3643 176.2 11.5248C176.58 12.6853 176.771 13.9755 176.771 15.3965V24.5201H172.453V15.9605C172.453 15.4593 172.412 14.957 172.33 14.4558C172.247 13.9545 172.098 13.4941 171.882 13.0766C171.666 12.6591 171.362 12.3242 170.972 12.0731C170.581 11.822 170.068 11.6964 169.43 11.6964C168.608 11.6964 167.92 11.9057 167.365 12.3232C166.81 12.7418 166.399 13.3058 166.131 14.0163C165.863 14.7268 165.73 15.5105 165.73 16.3675V24.519H161.412H161.413Z" fill="#3694FD"/>
<path d="M187.902 24.7545C186.195 24.7545 184.745 24.4091 183.553 23.7196C182.361 23.03 181.446 22.0527 180.809 20.7886C180.172 19.5245 179.853 18.0449 179.853 16.3518C179.853 14.6588 180.181 13.1383 180.84 11.8523C181.497 10.5673 182.428 9.5586 183.631 8.82717C184.834 8.09573 186.256 7.72949 187.902 7.72949C189.136 7.72949 190.22 7.93877 191.155 8.35629C192.091 8.77485 192.882 9.35979 193.529 10.1122C194.177 10.8645 194.659 11.7372 194.978 12.7302C195.296 13.7233 195.446 14.7948 195.426 15.9438C195.426 16.2367 195.416 16.5193 195.395 16.7903C195.375 17.0624 195.334 17.3344 195.272 17.6054H184.14C184.202 18.2322 184.376 18.8078 184.664 19.3299C184.951 19.8531 185.358 20.2654 185.882 20.5678C186.405 20.8713 187.058 21.023 187.84 21.023C188.354 21.023 188.827 20.9654 189.258 20.8503C189.689 20.7352 190.06 20.5521 190.369 20.302C190.678 20.0509 190.893 19.7589 191.016 19.4241H195.272C195.004 20.6578 194.506 21.6707 193.776 22.4649C193.047 23.2592 192.168 23.8399 191.14 24.2051C190.111 24.5703 189.032 24.7534 187.902 24.7534V24.7545ZM184.232 14.5332H191.293C191.272 13.9692 191.133 13.4408 190.876 12.95C190.619 12.4592 190.239 12.0616 189.735 11.7581C189.23 11.4557 188.588 11.304 187.807 11.304C187.026 11.304 186.373 11.461 185.849 11.7738C185.325 12.0878 184.934 12.4896 184.676 12.9814C184.419 13.4732 184.27 13.9901 184.23 14.5332H184.232Z" fill="#3694FD"/>
<path d="M28.0171 1.0063C26.0688 0.880732 24.4623 2.51417 24.5858 4.49501C24.6877 6.12844 25.9916 7.45423 27.5982 7.55783C29.5465 7.68235 31.153 6.04996 31.0295 4.06912C30.9276 2.43569 29.6236 1.10989 28.0171 1.0063Z" fill="white"/>
<path d="M20.9614 3.0625H15.7671C15.5953 3.0625 15.4573 3.20376 15.4573 3.37747V18.8653C15.4573 18.9731 15.3174 19.0107 15.2649 18.9176L6.27392 3.21946C6.21834 3.12214 6.11645 3.06355 6.00633 3.06355H0.309785C0.13894 3.06355 0 3.20481 0 3.37851V29.0918C0 29.2655 0.13894 29.4067 0.309785 29.4067H5.50409C5.67493 29.4067 5.81387 29.2655 5.81387 29.0918V13.6657C5.81387 13.559 5.95281 13.5202 6.00633 13.6134L14.9963 29.2508C15.0518 29.3481 15.1537 29.4067 15.2639 29.4067H20.9614C21.1333 29.4067 21.2712 29.2655 21.2712 29.0918V3.37747C21.2712 3.20272 21.1323 3.0625 20.9614 3.0625Z" fill="white"/>
<path d="M30.109 9.28859C29.3834 9.44764 28.6105 9.53345 27.8077 9.53345C27.005 9.53345 26.2331 9.44764 25.5065 9.28859C25.314 9.24673 25.1318 9.39532 25.1318 9.59623V29.0918C25.1318 29.2655 25.2708 29.4067 25.4416 29.4067H30.1728C30.3436 29.4067 30.4826 29.2655 30.4826 29.0918V9.59623C30.4826 9.39532 30.3004 9.24673 30.108 9.28859" fill="white"/>
<path d="M76.0909 24.5828H65.2762C65.2196 24.5828 65.1733 24.5357 65.1733 24.4782V18.7523C65.1733 18.6947 65.2196 18.6476 65.2762 18.6476H74.1025C74.2734 18.6476 74.4123 18.5064 74.4123 18.3327V14.1397C74.4123 13.966 74.2734 13.8247 74.1025 13.8247H65.2762C65.2196 13.8247 65.1733 13.7777 65.1733 13.7201V7.99419C65.1733 7.93664 65.2196 7.88955 65.2762 7.88955H76.0909C76.2617 7.88955 76.4007 7.74829 76.4007 7.57459V3.37747C76.4007 3.20272 76.2617 3.0625 76.0909 3.0625H59.6682C59.4963 3.0625 59.3584 3.20376 59.3584 3.37747V29.0907C59.3584 29.2644 59.4973 29.4057 59.6682 29.4057H76.0909C76.2617 29.4057 76.4007 29.2644 76.4007 29.0907V24.8978C76.4007 24.7241 76.2617 24.5828 76.0909 24.5828Z" fill="white"/>
<path d="M55.7433 19.6458H50.2516C50.1034 19.6458 49.9737 19.7525 49.947 19.9011C49.6928 21.3231 49.2142 22.4564 48.5123 23.3019C47.7208 24.2541 46.6021 24.7302 45.154 24.7302C44.0394 24.7302 43.0823 24.3839 42.2806 23.6912C41.4788 22.9995 40.8603 22.0211 40.426 20.7602C39.9916 19.4982 39.7745 18.0019 39.7745 16.2701C39.7745 14.5383 39.9803 13.1047 40.393 11.8176C40.8047 10.5316 41.4171 9.53019 42.2312 8.81236C43.0442 8.09452 44.0302 7.73665 45.189 7.73665C46.5033 7.73665 47.5726 8.18242 48.397 9.07291C49.1185 9.85353 49.6187 10.8999 49.8965 12.2111C49.9274 12.3544 50.054 12.457 50.1991 12.457H55.6703C55.8648 12.457 56.0099 12.277 55.9749 12.0824C55.4305 9.05721 54.3148 6.71746 52.6249 5.06519C50.8537 3.33444 48.3754 2.46802 45.1901 2.46802C42.8723 2.46802 40.8562 3.03726 39.1415 4.1747C37.4259 5.31214 36.1054 6.91418 35.1812 8.97978C34.257 11.0454 33.7949 13.4762 33.7949 16.2701C33.7949 19.064 34.2797 21.6318 35.2481 23.6723C36.2176 25.7128 37.5535 27.2782 39.2578 28.3654C40.9622 29.4537 42.9053 29.9978 45.0892 29.9978C47.2731 29.9978 49.0207 29.5897 50.5367 28.7735C52.0517 27.9573 53.2764 26.7759 54.2129 25.2294C55.0898 23.7801 55.7032 22.042 56.0511 20.0151C56.085 19.8216 55.9399 19.6426 55.7464 19.6426" fill="white"/>
</g>
</g>
<defs>
<clipPath id="clip0_213_3659">
<rect width="201" height="29" fill="white" transform="translate(0 1)"/>
</clipPath>
</defs>
</svg>
