<svg width="380" height="35" viewBox="0 0 380 35" fill="none" xmlns="http://www.w3.org/2000/svg">
<g opacity="0.9">
<g clip-path="url(#clip0_122_6768)">
<path d="M208.922 22.5034H202.173C201.991 22.5034 201.832 22.6323 201.799 22.8116C201.487 24.5279 200.898 25.8956 200.036 26.9173C199.063 28.0665 197.689 28.6411 195.909 28.6411C194.539 28.6411 193.363 28.2231 192.378 27.3871C191.393 26.551 190.633 25.3715 190.099 23.8497C189.565 22.3266 189.298 20.5207 189.298 18.4319C189.298 16.4024 189.551 14.6103 190.059 13.0582C190.564 11.5061 191.317 10.2975 192.317 9.43117C193.316 8.56609 194.528 8.13291 195.952 8.13291C197.567 8.13291 198.881 8.67091 199.894 9.74437C200.781 10.6865 201.396 11.9494 201.737 13.5318C201.775 13.7061 201.931 13.8286 202.109 13.8286H208.832C209.071 13.8286 209.249 13.6114 209.206 13.3765C208.537 9.72543 207.166 6.90158 205.09 4.90747C202.913 2.81863 199.868 1.77295 195.953 1.77295C193.105 1.77295 190.629 2.45997 188.521 3.83274C186.412 5.20677 184.79 7.13901 183.654 9.63197C182.518 12.1249 181.95 15.0587 181.95 18.4319C181.95 21.8051 182.546 24.903 183.736 27.3656C184.928 29.8283 186.569 31.7176 188.664 33.031C190.758 34.3444 193.146 35.0011 195.829 35.0011C198.43 35.0011 200.661 34.5086 202.522 33.5235C204.384 32.5385 205.889 31.1126 207.04 29.2473C208.118 27.4982 208.871 25.4005 209.299 22.9543C209.339 22.7207 209.162 22.5047 208.924 22.5047L208.922 22.5034Z" fill="white"/>
<path d="M234.481 2.48901H227.721C227.585 2.48901 227.46 2.561 227.392 2.67845L222.163 11.645C222.114 11.7296 221.993 11.7296 221.943 11.645L216.715 2.67845C216.647 2.561 216.522 2.48901 216.386 2.48901H209.626C209.333 2.48901 209.149 2.80726 209.297 3.06111L218.196 18.322C218.219 18.3611 218.219 18.4104 218.196 18.4495L209.297 33.7104C209.149 33.9643 209.333 34.2825 209.626 34.2825H216.386C216.522 34.2825 216.647 34.2105 216.715 34.0931L221.943 25.1265C221.993 25.0419 222.114 25.0419 222.163 25.1265L227.392 34.0931C227.46 34.2105 227.585 34.2825 227.721 34.2825H234.481C234.774 34.2825 234.957 33.9643 234.809 33.7104L225.911 18.4495C225.888 18.4104 225.888 18.3611 225.911 18.322L234.809 3.06111C234.957 2.80726 234.774 2.48901 234.481 2.48901Z" fill="white"/>
<path d="M254.346 13.7984C253.65 13.2566 252.709 12.9851 251.523 12.9851C250.337 12.9851 249.464 13.2566 248.757 13.7984C248.05 14.3415 247.538 15.0285 247.223 15.8607C246.907 16.693 246.749 17.5631 246.749 18.4711C246.749 19.3792 246.907 20.2746 247.223 21.0816C247.539 21.8898 248.05 22.5453 248.757 23.0492C249.464 23.5543 250.386 23.8056 251.523 23.8056C252.66 23.8056 253.62 23.5543 254.327 23.0492C255.034 22.5453 255.545 21.8822 255.861 21.0626C256.177 20.243 256.335 19.3792 256.335 18.4711C256.335 17.5631 256.177 16.693 255.861 15.8607C255.545 15.0285 255.04 14.3415 254.344 13.7984H254.346Z" fill="white"/>
<path d="M300.158 12.9851C299.538 12.6201 298.749 12.437 297.789 12.437C296.829 12.437 296.027 12.6264 295.382 13.0041C294.738 13.3829 294.258 13.8679 293.942 14.4614C293.626 15.055 293.442 15.6789 293.393 16.3343H302.07C302.045 15.6536 301.874 15.0159 301.559 14.4236C301.243 13.8313 300.776 13.3514 300.157 12.9851H300.158Z" fill="white"/>
<path d="M295.734 2.66211H253.187C240.231 2.66211 234.921 7.27296 234.921 18.5229C234.921 29.7728 240.231 34.3849 253.187 34.3849H295.734C308.69 34.3849 314.001 29.774 314.001 18.5229C314.001 7.27169 308.691 2.66211 295.734 2.66211ZM260.334 23.9394C259.513 25.4663 258.364 26.6319 256.885 27.4402C255.407 28.2485 253.645 28.6513 251.599 28.6513C249.552 28.6513 247.81 28.2421 246.293 27.4213C244.778 26.6016 243.603 25.4284 242.77 23.9028C241.936 22.3772 241.519 20.5675 241.519 18.4724C241.519 16.3772 241.941 14.4803 242.789 12.9282C243.635 11.3761 244.816 10.1852 246.332 9.35169C247.849 8.51944 249.592 8.10268 251.562 8.10268C253.533 8.10268 255.339 8.53207 256.83 9.38958C258.319 10.2471 259.482 11.4456 260.317 12.9838C261.15 14.5233 261.567 16.3646 261.567 18.509C261.567 20.6534 261.156 22.4126 260.335 23.9394H260.334ZM284.225 28.3848H278.919V18.0543C278.919 17.4494 278.869 16.8432 278.768 16.2383C278.666 15.6334 278.483 15.0777 278.219 14.5738C277.953 14.0699 277.58 13.6658 277.101 13.3627C276.62 13.0596 275.989 12.908 275.206 12.908C274.196 12.908 273.349 13.1606 272.668 13.6645C271.986 14.1697 271.48 14.8504 271.151 15.7079C270.823 16.5654 270.658 17.5113 270.658 18.5456V28.3836H265.353V8.44366H270.317L270.582 10.7522C271.137 10.0715 271.776 9.53607 272.496 9.14457C273.215 8.75434 273.948 8.48281 274.694 8.33127C275.439 8.17972 276.115 8.10394 276.721 8.10394C278.641 8.10394 280.137 8.5207 281.212 9.35295C282.286 10.1852 283.056 11.3016 283.524 12.7022C283.991 14.1027 284.225 15.6599 284.225 17.3749V28.3861V28.3848ZM307.112 19.0583C307.087 19.3867 307.037 19.715 306.961 20.0421H293.281C293.357 20.7986 293.571 21.4932 293.925 22.1234C294.278 22.7548 294.778 23.2524 295.421 23.6174C296.065 23.9836 296.867 24.1668 297.828 24.1668C298.459 24.1668 299.041 24.0973 299.571 23.9584C300.101 23.8207 300.556 23.5985 300.936 23.2966C301.315 22.9935 301.579 22.6412 301.731 22.2371H306.961C306.632 23.726 306.02 24.9485 305.123 25.907C304.226 26.8656 303.146 27.5665 301.883 28.0072C300.619 28.448 299.293 28.669 297.904 28.669C295.807 28.669 294.025 28.2522 292.561 27.42C291.095 26.5877 289.97 25.4082 289.188 23.8826C288.405 22.357 288.013 20.5713 288.013 18.5279C288.013 16.4845 288.416 14.6496 289.225 13.0974C290.034 11.5466 291.177 10.3292 292.655 9.44641C294.134 8.56364 295.882 8.12162 297.904 8.12162C299.419 8.12162 300.752 8.3742 301.902 8.8781C303.051 9.38326 304.024 10.0892 304.82 10.9972C305.615 11.9053 306.208 12.9585 306.6 14.157C306.991 15.3555 307.174 16.6487 307.15 18.0354C307.15 18.389 307.138 18.73 307.112 19.0571V19.0583Z" fill="white"/>
<path d="M101.43 0.00746057C99.0355 -0.144087 97.0613 1.8273 97.213 4.21797C97.3382 6.18935 98.9406 7.78945 100.915 7.91447C103.309 8.06476 105.283 6.09464 105.131 3.70397C105.006 1.73258 103.404 0.132488 101.43 0.00746057Z" fill="white"/>
<path d="M92.7586 2.48901H86.3755C86.1643 2.48901 85.9948 2.65951 85.9948 2.86915V21.5613C85.9948 21.6914 85.8228 21.7369 85.7583 21.6245L74.7097 2.67845C74.6414 2.561 74.5162 2.49028 74.3809 2.49028H67.3807C67.1707 2.49028 67 2.66077 67 2.87041V33.9036C67 34.1133 67.1707 34.2838 67.3807 34.2838H73.7637C73.9737 34.2838 74.1444 34.1133 74.1444 33.9036V15.286C74.1444 15.1572 74.3151 15.1104 74.3809 15.2228L85.4283 34.0956C85.4965 34.2131 85.6218 34.2838 85.7571 34.2838H92.7586C92.9698 34.2838 93.1393 34.1133 93.1393 33.9036V2.86915C93.1393 2.65824 92.9685 2.48901 92.7586 2.48901Z" fill="white"/>
<path d="M103.999 10.0032C103.108 10.1952 102.158 10.2987 101.172 10.2987C100.185 10.2987 99.2366 10.1952 98.3437 10.0032C98.1072 9.95268 97.8833 10.132 97.8833 10.3745V33.9036C97.8833 34.1132 98.054 34.2837 98.264 34.2837H104.078C104.288 34.2837 104.459 34.1132 104.459 33.9036V10.3745C104.459 10.132 104.235 9.95268 103.998 10.0032" fill="white"/>
<path d="M160.505 28.4618H147.215C147.145 28.4618 147.089 28.405 147.089 28.3355V21.4249C147.089 21.3555 147.145 21.2986 147.215 21.2986H158.061C158.271 21.2986 158.442 21.1281 158.442 20.9185V15.8581C158.442 15.6484 158.271 15.4779 158.061 15.4779H147.215C147.145 15.4779 147.089 15.4211 147.089 15.3516V8.44106C147.089 8.3716 147.145 8.31477 147.215 8.31477H160.505C160.715 8.31477 160.885 8.14428 160.885 7.93464V2.86915C160.885 2.65824 160.715 2.48901 160.505 2.48901H140.324C140.112 2.48901 139.943 2.65951 139.943 2.86915V33.9024C139.943 34.112 140.114 34.2825 140.324 34.2825H160.505C160.715 34.2825 160.885 34.112 160.885 33.9024V28.8419C160.885 28.6323 160.715 28.4618 160.505 28.4618Z" fill="white"/>
<path d="M135.501 22.5035H128.752C128.57 22.5035 128.411 22.6323 128.378 22.8116C128.066 24.5279 127.478 25.8956 126.615 26.9161C125.642 28.0653 124.268 28.6399 122.488 28.6399C121.119 28.6399 119.942 28.2219 118.957 27.3859C117.972 26.5511 117.212 25.3703 116.678 23.8485C116.144 22.3254 115.878 20.5195 115.878 18.4294C115.878 16.3393 116.131 14.6091 116.638 13.0557C117.144 11.5036 117.896 10.295 118.896 9.42869C119.896 8.56234 121.107 8.13043 122.531 8.13043C124.146 8.13043 125.46 8.66842 126.473 9.74315C127.36 10.6853 127.975 11.9482 128.316 13.5306C128.354 13.7036 128.51 13.8274 128.688 13.8274H135.411C135.65 13.8274 135.829 13.6101 135.786 13.3752C135.117 9.72421 133.746 6.90036 131.669 4.90624C129.492 2.81741 126.447 1.77173 122.533 1.77173C119.684 1.77173 117.207 2.45875 115.1 3.83152C112.991 5.20429 111.369 7.13779 110.233 9.63075C109.097 12.1237 108.53 15.0574 108.53 18.4294C108.53 21.8013 109.125 24.9005 110.315 27.3631C111.507 29.8258 113.148 31.7151 115.243 33.0272C117.337 34.3406 119.725 34.9973 122.409 34.9973C125.092 34.9973 127.24 34.5048 129.103 33.5198C130.964 32.5347 132.469 31.1089 133.62 29.2423C134.698 27.4932 135.452 25.3955 135.879 22.9493C135.921 22.7157 135.743 22.4997 135.505 22.4997" fill="white"/>
</g>
</g>
<defs>
<clipPath id="clip0_122_6768">
<rect width="247" height="35" fill="white" transform="translate(67)"/>
</clipPath>
</defs>
</svg>
