<svg viewBox="0 0 153.49 111.34" xmlns="http://www.w3.org/2000/svg" xmlns:xlink="http://www.w3.org/1999/xlink" id="Layer_1" overflow="hidden"><defs></defs><g id="Artwork_23"><g><g><path d="M9.01 19.12C7.09 19.12 5.46 18.73 4.11 17.95 2.76 17.17 1.74 16.06 1.05 14.63 0.35 13.2 0.01 11.54 0.01 9.64 0.01 7.74 0.37 6.01 1.08 4.57 1.79 3.13 2.82 2 4.16 1.2 5.5 0.4 7.11 1.9984e-15 8.99 1.9984e-15 10.42 1.9984e-15 11.69 0.24 12.82 0.73 13.95 1.21 14.86 1.93 15.55 2.87 16.24 3.81 16.68 4.97 16.86 6.34L13.21 6.34C12.98 5.48 12.52 4.79 11.82 4.29 11.12 3.79 10.2 3.54 9.06 3.54 7.79 3.54 6.78 3.83 6.04 4.4 5.3 4.97 4.75 5.71 4.42 6.62 4.08 7.53 3.92 8.48 3.92 9.49 3.92 10.5 4.1 11.52 4.45 12.45 4.8 13.38 5.36 14.14 6.13 14.72 6.9 15.3 7.9 15.59 9.15 15.59 9.89 15.59 10.55 15.48 11.13 15.26 11.71 15.04 12.19 14.72 12.57 14.3 12.95 13.88 13.21 13.38 13.35 12.79L17.13 12.79C16.97 14.15 16.51 15.3 15.76 16.25 15 17.2 14.04 17.92 12.88 18.4 11.72 18.88 10.43 19.13 9.02 19.13Z" fill="#FFFFFF"/><path d="M19.36 18.91 19.36 4.99 22.69 4.99 22.93 6.65C23.28 6.12 23.68 5.72 24.12 5.45 24.56 5.18 25.02 4.99 25.49 4.89 25.96 4.79 26.45 4.75 26.94 4.75 27.17 4.75 27.38 4.75 27.57 4.76 27.76 4.77 27.9 4.77 27.99 4.77L27.99 8.34 27.12 8.34C26.29 8.34 25.57 8.48 24.95 8.76 24.33 9.04 23.86 9.48 23.54 10.08 23.21 10.68 23.05 11.44 23.05 12.38L23.05 18.9 19.35 18.9Z" fill="#FFFFFF"/><path d="M35.85 19.1C34.39 19.1 33.15 18.81 32.13 18.23 31.11 17.65 30.32 16.83 29.78 15.76 29.23 14.7 28.96 13.45 28.96 12.02 28.96 10.59 29.24 9.31 29.8 8.23 30.36 7.15 31.16 6.3 32.19 5.68 33.22 5.06 34.44 4.76 35.85 4.76 36.91 4.76 37.84 4.94 38.64 5.29 39.44 5.64 40.12 6.14 40.67 6.77 41.23 7.4 41.64 8.14 41.91 8.98 42.18 9.82 42.31 10.72 42.29 11.69 42.29 11.94 42.29 12.17 42.26 12.4 42.24 12.63 42.21 12.86 42.15 13.09L32.61 13.09C32.66 13.62 32.81 14.1 33.06 14.54 33.31 14.98 33.65 15.33 34.1 15.58 34.55 15.84 35.11 15.96 35.78 15.96 36.22 15.96 36.63 15.91 37 15.81 37.37 15.71 37.69 15.56 37.95 15.35 38.21 15.14 38.4 14.89 38.51 14.61L42.16 14.61C41.93 15.65 41.5 16.5 40.88 17.17 40.25 17.84 39.5 18.33 38.62 18.64 37.74 18.95 36.81 19.1 35.85 19.1ZM32.7 10.49 38.75 10.49C38.73 10.01 38.61 9.57 38.39 9.16 38.17 8.75 37.84 8.41 37.41 8.16 36.98 7.9 36.43 7.78 35.76 7.78 35.09 7.78 34.53 7.91 34.08 8.18 33.63 8.44 33.3 8.78 33.08 9.2 32.86 9.62 32.73 10.05 32.7 10.51Z" fill="#FFFFFF"/><path d="M50.37 19.1C49.33 19.1 48.42 18.92 47.64 18.56 46.86 18.2 46.2 17.7 45.69 17.05 45.18 16.4 44.78 15.66 44.53 14.8 44.27 13.95 44.15 13.02 44.15 12.01 44.15 10.58 44.41 9.33 44.93 8.23 45.45 7.13 46.2 6.28 47.19 5.67 48.18 5.05 49.37 4.75 50.78 4.75 51.54 4.75 52.26 4.88 52.95 5.13 53.64 5.38 54.21 5.78 54.67 6.31L54.8 4.99 58.29 4.99 58.29 18.91 54.72 18.91 54.64 17.54C54.06 18.09 53.4 18.48 52.66 18.73 51.92 18.98 51.16 19.1 50.39 19.1ZM51.22 15.77C51.96 15.77 52.58 15.59 53.07 15.24 53.56 14.89 53.94 14.42 54.19 13.84 54.44 13.26 54.57 12.62 54.57 11.94 54.57 11.26 54.44 10.6 54.19 10.02 53.93 9.45 53.56 8.99 53.05 8.65 52.55 8.31 51.92 8.14 51.16 8.14 50.4 8.14 49.75 8.32 49.26 8.67 48.77 9.02 48.41 9.48 48.18 10.06 47.95 10.63 47.84 11.25 47.84 11.92 47.84 12.59 47.95 13.22 48.18 13.81 48.41 14.4 48.77 14.88 49.26 15.24 49.75 15.6 50.4 15.78 51.21 15.78Z" fill="#FFFFFF"/><path d="M66.86 19.1C65.29 19.1 64.13 18.66 63.39 17.78 62.64 16.9 62.27 15.69 62.27 14.16L62.27 8.3 60.18 8.3 60.18 5 62.27 5 62.27 1.24 65.97 1.24 65.97 4.99 70.2 4.99 70.2 8.29 65.97 8.29 65.97 13.39C65.97 13.85 66.03 14.24 66.14 14.58 66.25 14.91 66.45 15.17 66.72 15.36 66.99 15.55 67.37 15.64 67.84 15.64 68.26 15.64 68.62 15.57 68.91 15.44 69.2 15.31 69.44 15.16 69.64 15L70.8 17.85C70.43 18.15 70.02 18.39 69.57 18.58 69.12 18.76 68.67 18.9 68.21 18.98 67.75 19.06 67.3 19.1 66.86 19.1Z" fill="#FFFFFF"/><path d="M78.69 19.1C77.23 19.1 75.99 18.81 74.97 18.23 73.95 17.65 73.16 16.83 72.62 15.76 72.07 14.7 71.8 13.45 71.8 12.02 71.8 10.59 72.08 9.31 72.64 8.23 73.2 7.15 74 6.3 75.03 5.68 76.06 5.06 77.28 4.76 78.69 4.76 79.75 4.76 80.68 4.94 81.48 5.29 82.28 5.64 82.96 6.14 83.51 6.77 84.07 7.4 84.48 8.14 84.75 8.98 85.02 9.82 85.15 10.72 85.13 11.69 85.13 11.94 85.13 12.17 85.1 12.4 85.08 12.63 85.05 12.86 84.99 13.09L75.45 13.09C75.5 13.62 75.65 14.1 75.9 14.54 76.15 14.98 76.49 15.33 76.94 15.58 77.39 15.84 77.95 15.96 78.62 15.96 79.06 15.96 79.47 15.91 79.84 15.81 80.21 15.71 80.53 15.56 80.79 15.35 81.05 15.14 81.24 14.89 81.35 14.61L85 14.61C84.77 15.65 84.34 16.5 83.72 17.17 83.09 17.84 82.34 18.33 81.46 18.64 80.58 18.95 79.65 19.1 78.69 19.1ZM75.55 10.49 81.6 10.49C81.58 10.01 81.46 9.57 81.24 9.16 81.02 8.75 80.69 8.41 80.26 8.16 79.83 7.9 79.28 7.78 78.61 7.78 77.94 7.78 77.38 7.91 76.93 8.18 76.48 8.44 76.15 8.78 75.93 9.2 75.71 9.62 75.58 10.05 75.55 10.51Z" fill="#FFFFFF"/><path d="M100.67 19.1C99.63 19.1 98.72 18.92 97.94 18.56 97.16 18.2 96.5 17.7 95.99 17.05 95.48 16.4 95.08 15.66 94.83 14.8 94.57 13.95 94.45 13.02 94.45 12.01 94.45 10.58 94.71 9.33 95.23 8.23 95.75 7.13 96.5 6.28 97.49 5.67 98.48 5.05 99.67 4.75 101.08 4.75 101.84 4.75 102.56 4.88 103.25 5.13 103.94 5.38 104.51 5.78 104.97 6.31L105.1 4.99 108.59 4.99 108.59 18.91 105.02 18.91 104.94 17.54C104.36 18.09 103.7 18.48 102.96 18.73 102.22 18.98 101.46 19.1 100.69 19.1ZM101.52 15.77C102.26 15.77 102.88 15.59 103.37 15.24 103.86 14.89 104.24 14.42 104.49 13.84 104.74 13.26 104.87 12.62 104.87 11.94 104.87 11.26 104.74 10.6 104.49 10.02 104.23 9.45 103.86 8.99 103.35 8.65 102.85 8.31 102.22 8.14 101.46 8.14 100.7 8.14 100.05 8.32 99.56 8.67 99.07 9.02 98.71 9.48 98.48 10.06 98.25 10.63 98.14 11.25 98.14 11.92 98.14 12.59 98.25 13.22 98.48 13.81 98.71 14.4 99.07 14.88 99.56 15.24 100.05 15.6 100.7 15.78 101.51 15.78Z" fill="#FFFFFF"/></g><g><path d="M57.1 28.1C53.22 27.85 50.02 31.05 50.26 34.94 50.46 38.14 53.06 40.74 56.26 40.94 60.14 41.19 63.34 37.99 63.1 34.1 62.9 30.9 60.3 28.3 57.1 28.1Z" fill="#FFFFFF"/><g><path d="M43.05 32.13 32.7 32.13C32.36 32.13 32.08 32.41 32.08 32.75L32.08 63.1C32.08 63.31 31.8 63.39 31.7 63.2L13.79 32.44C13.68 32.25 13.48 32.13 13.26 32.13L1.91 32.13C1.57 32.13 1.29 32.41 1.29 32.75L1.29 83.13C1.29 83.47 1.57 83.75 1.91 83.75L12.26 83.75C12.6 83.75 12.88 83.47 12.88 83.13L12.88 52.91C12.88 52.7 13.16 52.62 13.26 52.81L31.17 83.45C31.28 83.64 31.48 83.76 31.7 83.76L43.05 83.76C43.39 83.76 43.67 83.48 43.67 83.14L43.67 32.76C43.67 32.42 43.39 32.14 43.05 32.14Z" fill="#FFFFFF"/><path d="M61.27 44.33C59.82 44.64 58.28 44.81 56.69 44.81 55.1 44.81 53.55 44.64 52.11 44.33 51.73 44.25 51.36 44.54 51.36 44.93L51.36 83.13C51.36 83.47 51.64 83.75 51.98 83.75L61.4 83.75C61.74 83.75 62.02 83.47 62.02 83.13L62.02 44.93C62.02 44.54 61.66 44.25 61.27 44.33Z" fill="#FFFFFF"/><path d="M152.87 74.29 131.33 74.29C131.22 74.29 131.12 74.2 131.12 74.08L131.12 62.86C131.12 62.75 131.21 62.65 131.33 62.65L148.91 62.65C149.25 62.65 149.53 62.37 149.53 62.03L149.53 53.81C149.53 53.47 149.25 53.19 148.91 53.19L131.33 53.19C131.22 53.19 131.12 53.1 131.12 52.98L131.12 41.76C131.12 41.65 131.21 41.55 131.33 41.55L152.87 41.55C153.21 41.55 153.49 41.27 153.49 40.93L153.49 32.71C153.49 32.37 153.21 32.09 152.87 32.09L120.16 32.09C119.82 32.09 119.54 32.37 119.54 32.71L119.54 83.09C119.54 83.43 119.82 83.71 120.16 83.71L152.88 83.71C153.22 83.71 153.5 83.43 153.5 83.09L153.5 74.87C153.5 74.53 153.22 74.25 152.88 74.25Z" fill="#FFFFFF"/><path d="M112.34 64.62 101.4 64.62C101.1 64.62 100.85 64.83 100.79 65.12 100.28 67.91 99.33 70.13 97.93 71.78 96.35 73.65 94.12 74.58 91.24 74.58 89.02 74.58 87.11 73.9 85.52 72.54 83.92 71.18 82.69 69.27 81.83 66.8 80.96 64.33 80.53 61.4 80.53 58 80.53 54.7 80.94 51.8 81.76 49.28 82.58 46.76 83.8 44.8 85.42 43.39 87.04 41.98 89 41.28 91.31 41.28 93.93 41.28 96.06 42.15 97.7 43.9 99.14 45.43 100.13 47.48 100.69 50.05 100.75 50.33 101 50.53 101.29 50.53L112.19 50.53C112.58 50.53 112.87 50.18 112.8 49.8 111.72 43.87 109.49 39.29 106.13 36.05 102.6 32.66 97.66 30.96 91.32 30.96 86.7 30.96 82.69 32.08 79.27 34.3 75.85 36.53 73.22 39.67 71.38 43.71 69.54 47.76 68.62 52.52 68.62 58 68.62 63.48 69.59 68.5 71.52 72.5 73.45 76.5 76.11 79.56 79.51 81.7 82.9 83.83 86.78 84.9 91.13 84.9 95.35 84.9 98.96 84.1 101.98 82.5 105 80.9 107.44 78.59 109.3 75.56 111.05 72.72 112.27 69.31 112.96 65.34 113.03 64.96 112.74 64.61 112.35 64.61Z" fill="#FFFFFF"/></g></g><g><path d="M85.3 111.15 80.92 97.23 84.96 97.23 87.55 106.92 90.3 97.23 94.45 97.23 97.2 106.92 99.74 97.23 103.73 97.23 99.35 111.15 95.1 111.15 92.33 101.75 89.58 111.15 85.33 111.15Z" fill="#FFFFFF"/><path d="M112.14 111.34C110.73 111.34 109.5 111.05 108.44 110.48 107.38 109.91 106.56 109.09 105.98 108.02 105.4 106.96 105.11 105.69 105.11 104.23 105.11 102.77 105.4 101.44 105.99 100.36 106.58 99.28 107.4 98.44 108.46 97.86 109.52 97.28 110.73 96.99 112.11 96.99 113.49 96.99 114.74 97.29 115.78 97.89 116.82 98.49 117.63 99.33 118.21 100.4 118.79 101.47 119.08 102.76 119.08 104.26 119.08 105.76 118.79 106.99 118.22 108.05 117.65 109.12 116.85 109.93 115.82 110.49 114.79 111.05 113.56 111.34 112.14 111.34ZM112.09 107.96C112.9 107.96 113.55 107.78 114.04 107.43 114.53 107.08 114.89 106.62 115.11 106.04 115.33 105.47 115.44 104.86 115.44 104.23 115.44 103.6 115.33 102.99 115.11 102.41 114.89 101.83 114.54 101.35 114.05 100.97 113.57 100.59 112.91 100.4 112.08 100.4 111.25 100.4 110.64 100.59 110.15 100.97 109.66 101.35 109.3 101.83 109.08 102.41 108.86 102.99 108.75 103.6 108.75 104.23 108.75 104.86 108.86 105.49 109.08 106.05 109.3 106.61 109.66 107.07 110.15 107.42 110.64 107.77 111.29 107.95 112.08 107.95Z" fill="#FFFFFF"/><path d="M121.89 111.15 121.89 97.23 125.22 97.23 125.46 98.89C125.81 98.36 126.21 97.96 126.65 97.69 127.09 97.42 127.55 97.23 128.02 97.13 128.49 97.03 128.98 96.99 129.47 96.99 129.7 96.99 129.91 96.99 130.1 97 130.29 97.01 130.43 97.01 130.52 97.01L130.52 100.58 129.65 100.58C128.82 100.58 128.1 100.72 127.48 101 126.86 101.28 126.39 101.72 126.07 102.32 125.74 102.92 125.58 103.68 125.58 104.62L125.58 111.14 121.88 111.14Z" fill="#FFFFFF"/><path d="M132.69 111.15 132.69 92.45 136.39 92.45 136.39 111.15 132.69 111.15Z" fill="#FFFFFF"/><path d="M145.48 111.34C144.07 111.34 142.9 111.02 141.98 110.38 141.06 109.74 140.36 108.87 139.91 107.79 139.45 106.71 139.22 105.5 139.22 104.18 139.22 102.79 139.47 101.55 139.96 100.47 140.45 99.39 141.18 98.54 142.15 97.92 143.12 97.3 144.32 97 145.77 97 146.26 97 146.75 97.06 147.24 97.17 147.72 97.28 148.17 97.45 148.59 97.67 149 97.89 149.36 98.18 149.66 98.53L149.66 92.45 153.36 92.45 153.36 111.15 149.77 111.15 149.72 109.59C149.4 110 149.02 110.33 148.57 110.58 148.12 110.83 147.64 111.02 147.13 111.15 146.62 111.27 146.07 111.34 145.49 111.34ZM146.22 108.01C147.01 108.01 147.66 107.83 148.16 107.46 148.66 107.09 149.04 106.61 149.28 106.03 149.53 105.45 149.65 104.82 149.65 104.15 149.65 103.48 149.53 102.83 149.29 102.26 149.05 101.69 148.68 101.23 148.18 100.89 147.68 100.55 147.02 100.38 146.21 100.38 145.4 100.38 144.75 100.56 144.26 100.93 143.77 101.3 143.42 101.78 143.22 102.37 143.02 102.96 142.92 103.59 142.92 104.26 142.92 104.75 142.98 105.22 143.09 105.67 143.2 106.12 143.39 106.52 143.66 106.87 143.92 107.22 144.27 107.5 144.69 107.7 145.11 107.9 145.62 108 146.22 108Z" fill="#FFFFFF"/></g></g></g></svg>